<?xml version="1.0" encoding="iso-8859-1"?>
<!-- Generator: Adobe Illustrator 19.0.0, SVG Export Plug-In . SVG Version: 6.00 Build 0)  -->
<svg version="1.1" id="Capa_1" xmlns="http://www.w3.org/2000/svg" xmlns:xlink="http://www.w3.org/1999/xlink" x="0px" y="0px"
	 viewBox="0 0 512.002 512.002" style="enable-background:new 0 0 512.002 512.002;" xml:space="preserve">
<g>
	<g>
		<path d="M509.054,50.184L461.809,2.94c-3.817-3.816-9.971-3.931-13.927-0.26L177.727,253.398
			c-0.003,0.003-0.006,0.006-0.009,0.009c-0.065,0.061-0.123,0.13-0.188,0.193c-0.194,0.19-0.385,0.382-0.559,0.583
			c-0.064,0.073-0.12,0.155-0.183,0.23c-0.168,0.205-0.33,0.412-0.48,0.625c-0.015,0.021-0.032,0.04-0.047,0.062l-37.684,55.254
			L46.02,347.496c-2.915,1.17-5.115,3.636-5.944,6.667L0.357,499.312c-0.014,0.05-0.02,0.101-0.033,0.152
			c-0.035,0.138-0.068,0.275-0.097,0.414c-0.022,0.103-0.043,0.206-0.061,0.309c-0.016,0.087-0.03,0.176-0.044,0.263
			c-0.021,0.135-0.037,0.269-0.052,0.405c-0.01,0.094-0.02,0.189-0.027,0.283c-0.009,0.106-0.018,0.212-0.023,0.318
			c-0.006,0.123-0.008,0.246-0.01,0.37c-0.001,0.09-0.001,0.181,0,0.271c0,0.125,0.002,0.247,0.009,0.37
			c0.005,0.106,0.014,0.212,0.023,0.318c0.008,0.094,0.017,0.189,0.027,0.283c0.015,0.135,0.032,0.27,0.052,0.405
			c0.013,0.087,0.028,0.176,0.044,0.263c0.018,0.103,0.039,0.207,0.061,0.309c0.03,0.14,0.062,0.277,0.097,0.414
			c0.013,0.05,0.019,0.101,0.033,0.152c0.008,0.031,0.02,0.059,0.029,0.09c0.029,0.103,0.062,0.206,0.095,0.308
			c0.031,0.096,0.061,0.193,0.095,0.288c0.033,0.093,0.067,0.186,0.102,0.277c0.047,0.121,0.097,0.241,0.149,0.361
			c0.026,0.061,0.05,0.125,0.078,0.185c0.049,0.107,0.102,0.212,0.155,0.316c0.055,0.111,0.112,0.223,0.172,0.332
			c0.1,0.184,0.207,0.361,0.317,0.537c0.05,0.079,0.097,0.161,0.151,0.24c0.04,0.06,0.081,0.12,0.122,0.18
			c0.024,0.034,0.051,0.066,0.075,0.1c0.151,0.209,0.307,0.412,0.472,0.606c0.059,0.07,0.122,0.138,0.183,0.207
			c0.112,0.125,0.225,0.25,0.342,0.369c0.016,0.016,0.029,0.034,0.045,0.05c0.02,0.02,0.042,0.036,0.062,0.056
			c0.072,0.071,0.147,0.14,0.221,0.209c0.117,0.108,0.238,0.214,0.361,0.316c0.055,0.047,0.109,0.096,0.166,0.142
			c0.058,0.047,0.117,0.092,0.177,0.139c0.127,0.097,0.26,0.189,0.391,0.28c0.082,0.057,0.163,0.119,0.247,0.174
			c0.066,0.043,0.135,0.083,0.204,0.125c0.145,0.089,0.292,0.175,0.442,0.256c0.075,0.041,0.15,0.085,0.226,0.125
			c0.091,0.047,0.187,0.087,0.28,0.132c0.147,0.07,0.293,0.141,0.443,0.204c0.065,0.027,0.131,0.054,0.197,0.08
			c0.069,0.027,0.142,0.05,0.212,0.076c0.152,0.056,0.304,0.109,0.459,0.159c0.094,0.029,0.188,0.058,0.282,0.085
			c0.027,0.008,0.052,0.019,0.08,0.026c0.018,0.005,0.036,0.006,0.054,0.011c0.17,0.045,0.34,0.084,0.512,0.12
			c0.086,0.018,0.173,0.038,0.259,0.054c0.141,0.026,0.283,0.048,0.425,0.068c0.063,0.009,0.127,0.016,0.19,0.023
			c0.052,0.006,0.104,0.014,0.158,0.02c0.037,0.004,0.074,0.01,0.111,0.014c0.309,0.029,0.619,0.048,0.934,0.048
			c0.002,0,0.004,0,0.006,0s0.004,0,0.006,0c0.312,0,0.622-0.019,0.931-0.047c0.041-0.004,0.082-0.011,0.123-0.016
			c0.048-0.005,0.096-0.012,0.144-0.018c0.066-0.008,0.132-0.015,0.197-0.024c0.14-0.02,0.279-0.042,0.418-0.067
			c0.091-0.017,0.182-0.037,0.273-0.057c0.168-0.036,0.334-0.073,0.499-0.117c0.02-0.005,0.039-0.007,0.059-0.012l145.146-39.725
			c3.03-0.829,5.497-3.03,6.667-5.944l37.142-92.558l55.252-37.683c0.009-0.006,0.016-0.013,0.025-0.019
			c0.247-0.17,0.485-0.356,0.719-0.551c0.049-0.041,0.103-0.077,0.153-0.119c0.207-0.179,0.403-0.374,0.596-0.572
			c0.063-0.064,0.135-0.123,0.196-0.19c0.004-0.005,0.009-0.008,0.013-0.013L509.313,64.112
			C512.986,60.155,512.871,54.002,509.054,50.184z M147.727,453.87L43.919,482.281l48.623-48.623
			c4.701,2.456,9.954,3.763,15.41,3.763c8.917,0,17.297-3.475,23.597-9.781c13.004-13.01,13.003-34.175-0.004-47.183
			c-6.3-6.3-14.679-9.769-23.593-9.769c-8.914,0-17.293,3.47-23.589,9.766c-6.308,6.301-9.781,14.681-9.781,23.597
			c0,5.457,1.307,10.712,3.762,15.412l-48.623,48.622l28.411-103.81l84.613-33.953l38.936,38.936L147.727,453.87z M94.66,404.049
			c0-3.549,1.382-6.884,3.896-9.395c2.508-2.508,5.844-3.889,9.395-3.889c3.552,0,6.888,1.381,9.396,3.889
			c5.181,5.18,5.181,13.611,0,18.791c-0.001,0.002-0.002,0.003-0.004,0.004c-2.507,2.511-5.842,3.893-9.392,3.893
			c-3.549,0-6.884-1.382-9.399-3.901C96.042,410.934,94.66,407.599,94.66,404.049z M194.682,353.863l-36.544-36.544l27.89-40.894
			l49.547,49.547L194.682,353.863z M250.971,312.972l-51.943-51.943L454.455,23.979l33.567,33.567L250.971,312.972z"/>
	</g>
</g>
<g>
	<g>
		<path d="M315.203,194.555c-3.92-3.919-10.277-3.919-14.198,0L248.9,246.66c-3.919,3.921-3.919,10.278,0.001,14.198
			c1.961,1.96,4.53,2.94,7.099,2.94s5.139-0.981,7.099-2.94l52.104-52.104C319.123,204.833,319.123,198.477,315.203,194.555z"/>
	</g>
</g>
<g>
	<g>
		<path d="M326.711,173.009c-12.919,0-12.941,20.078,0,20.078C339.63,193.088,339.651,173.009,326.711,173.009z"/>
	</g>
</g>
<g>
</g>
<g>
</g>
<g>
</g>
<g>
</g>
<g>
</g>
<g>
</g>
<g>
</g>
<g>
</g>
<g>
</g>
<g>
</g>
<g>
</g>
<g>
</g>
<g>
</g>
<g>
</g>
<g>
</g>
</svg>
