<?xml version="1.0" encoding="iso-8859-1"?>
<!-- Generator: Adobe Illustrator 18.0.0, SVG Export Plug-In . SVG Version: 6.00 Build 0)  -->
<!DOCTYPE svg PUBLIC "-//W3C//DTD SVG 1.1//EN" "http://www.w3.org/Graphics/SVG/1.1/DTD/svg11.dtd">
<svg xmlns="http://www.w3.org/2000/svg" xmlns:xlink="http://www.w3.org/1999/xlink" version="1.1" id="Capa_1" x="0px" y="0px" viewBox="0 0 325 325" style="enable-background:new 0 0 325 325;" xml:space="preserve" width="512px" height="512px">
<path d="M312.724,16.641l-4.15-4.151c-16.344-16.344-42.938-16.343-59.279,0.001l-76.068,76.068l-5.738-5.737  c-3.779-3.778-8.806-5.86-14.153-5.861c-0.002,0-0.004,0-0.006,0c-5.351,0-10.378,2.082-14.16,5.866l-1.618,1.621  c-3.781,3.78-5.864,8.81-5.864,14.159c-0.001,5.351,2.082,10.379,5.863,14.159l8.82,8.82L23.177,244.78  c-0.693,0.692-1.206,1.544-1.493,2.48L0.264,317.006c-0.652,2.124-0.078,4.434,1.494,6.005c1.142,1.142,2.675,1.757,4.243,1.757  c0.588,0,1.182-0.087,1.762-0.265l69.742-21.426c0.937-0.287,1.788-0.8,2.48-1.493l123.192-123.191l9.275,9.275  c3.78,3.781,8.809,5.864,14.159,5.864c5.35,0,10.378-2.083,14.16-5.865l1.62-1.621c7.806-7.812,7.805-20.516,0-28.318l-5.733-5.736  l76.069-76.066c0.053-0.053,0.105-0.107,0.154-0.16c7.817-7.897,12.119-18.358,12.118-29.483  C325,35.082,320.64,24.555,312.724,16.641z M72.555,292.044l-57.496,17.664l17.658-57.499l122.137-122.139l39.838,39.838  L72.555,292.044z M304.241,67.436c-0.048,0.048-0.096,0.098-0.143,0.147l-80.167,80.164c-2.343,2.343-2.344,6.142-0.002,8.484  l9.976,9.98c3.129,3.128,3.128,8.22-0.002,11.352l-1.618,1.62c-1.515,1.514-3.53,2.349-5.674,2.349c-2.145,0-4.159-0.834-5.674-2.35  l-74.903-74.902c-1.515-1.515-2.349-3.529-2.349-5.674s0.834-4.159,2.352-5.677l1.62-1.622c1.514-1.515,3.527-2.348,5.671-2.348  c0.001,0,0.002,0,0.002,0c2.145,0,4.159,0.834,5.673,2.348l9.982,9.979c2.344,2.342,6.142,2.343,8.485-0.001l80.31-80.311  c11.664-11.666,30.645-11.662,42.309,0l4.15,4.151c5.65,5.649,8.762,13.161,8.762,21.155C313,54.274,309.89,61.787,304.241,67.436z" fill="#ffffff"/>
<g>
</g>
<g>
</g>
<g>
</g>
<g>
</g>
<g>
</g>
<g>
</g>
<g>
</g>
<g>
</g>
<g>
</g>
<g>
</g>
<g>
</g>
<g>
</g>
<g>
</g>
<g>
</g>
<g>
</g>
</svg>
