<?xml version="1.0" encoding="iso-8859-1"?>
<!-- Generator: Adobe Illustrator 19.0.0, SVG Export Plug-In . SVG Version: 6.00 Build 0)  -->
<svg version="1.1" id="Capa_1" xmlns="http://www.w3.org/2000/svg" xmlns:xlink="http://www.w3.org/1999/xlink" x="0px" y="0px"
	 viewBox="0 0 510.792 510.792" style="enable-background:new 0 0 510.792 510.792;" xml:space="preserve">
<g>
	<path d="M494.537,161.368L381.4,48.231c-21.64-21.64-56.85-21.64-78.489,0L16.23,334.912c-21.64,21.64-21.64,56.85,0,78.489
		l63.194,63.194c1.818,1.818,4.336,2.505,6.686,2.066c0.444,0.082,0.9,0.13,1.367,0.13h320c4.142,0,7.5-3.358,7.5-7.5
		s-3.358-7.5-7.5-7.5H270.603l223.934-223.934c10.482-10.482,16.255-24.42,16.255-39.245
		C510.792,185.788,505.019,171.851,494.537,161.368z M87.833,463.791l-60.997-60.997c-15.791-15.791-15.791-41.485,0-57.276
		l138.131-138.13L335.38,377.801l-85.99,85.99H87.833z M483.93,229.25L345.987,367.194L175.573,196.781L313.517,58.837
		c15.792-15.791,41.486-15.79,57.276,0L483.93,171.975c7.649,7.649,11.862,17.82,11.862,28.638
		C495.792,211.431,491.58,221.601,483.93,229.25z"/>
	<path d="M463.477,463.791h-24c-4.142,0-7.5,3.358-7.5,7.5s3.358,7.5,7.5,7.5h24c4.142,0,7.5-3.358,7.5-7.5
		S467.619,463.791,463.477,463.791z"/>
	<path d="M348.123,424.583l-16,8c-3.705,1.852-5.207,6.357-3.354,10.062c1.314,2.628,3.962,4.147,6.714,4.147
		c1.127,0,2.271-0.255,3.348-0.793l16-8c3.705-1.852,5.207-6.357,3.354-10.062C356.333,424.232,351.827,422.729,348.123,424.583z"/>
	<path d="M383.477,446.791h8c4.142,0,7.5-3.358,7.5-7.5s-3.358-7.5-7.5-7.5h-8c-4.142,0-7.5,3.358-7.5,7.5
		S379.335,446.791,383.477,446.791z"/>
	<path d="M380.78,393.988c-2.929-2.929-7.678-2.929-10.606,0l-8,8c-2.929,2.929-2.929,7.678,0,10.606
		c1.464,1.464,3.384,2.197,5.303,2.197s3.839-0.732,5.303-2.197l8-8C383.709,401.666,383.709,396.917,380.78,393.988z"/>
	<path d="M407.474,407.791c-1.97,0-3.9,0.8-5.3,2.2c-1.4,1.39-2.2,3.33-2.2,5.3c0,1.97,0.8,3.91,2.2,5.3c1.39,1.4,3.33,2.2,5.3,2.2
		c1.98,0,3.91-0.8,5.31-2.2c1.39-1.39,2.19-3.33,2.19-5.3c0-1.97-0.8-3.91-2.19-5.3
		C411.384,408.591,409.454,407.791,407.474,407.791z"/>
	<path d="M412.784,369.991c-1.4-1.4-3.33-2.2-5.31-2.2c-1.97,0-3.91,0.8-5.3,2.2c-1.4,1.39-2.2,3.33-2.2,5.3
		c0,1.97,0.8,3.91,2.2,5.3c1.4,1.4,3.33,2.2,5.3,2.2c1.98,0,3.91-0.8,5.31-2.2c1.39-1.39,2.19-3.33,2.19-5.3
		C414.974,373.321,414.174,371.381,412.784,369.991z"/>
</g>
<g>
</g>
<g>
</g>
<g>
</g>
<g>
</g>
<g>
</g>
<g>
</g>
<g>
</g>
<g>
</g>
<g>
</g>
<g>
</g>
<g>
</g>
<g>
</g>
<g>
</g>
<g>
</g>
<g>
</g>
</svg>
