<?xml version="1.0"?>
<svg xmlns="http://www.w3.org/2000/svg" xmlns:xlink="http://www.w3.org/1999/xlink" version="1.1" id="Capa_1" x="0px" y="0px" viewBox="0 0 60.003 60.003" style="enable-background:new 0 0 60.003 60.003;" xml:space="preserve" width="512px" height="512px"><g><g>
	<path d="M6.206,39.293c-0.391-0.391-1.023-0.391-1.414,0l-2.5,2.5c-1.769,1.769-1.769,4.646,0,6.414   c0.856,0.856,1.995,1.328,3.207,1.328c1.211,0,2.351-0.472,3.207-1.328c1.768-1.769,1.768-4.646,0-6.414L6.206,39.293z    M7.292,46.793c-0.96,0.958-2.63,0.956-3.586,0c-0.988-0.988-0.988-2.598,0-3.586l1.793-1.793l1.793,1.793   C8.279,44.195,8.279,45.805,7.292,46.793z" data-original="#000000" class="active-path" data-old_color="#ffffff" fill="#ffffff"/>
	<path d="M58.28,30.962L33.531,6.213c-0.957-0.957-2.609-0.898-4.638-0.146C28.222,2.615,25.18,0,21.534,0   c-4.136,0-7.5,3.364-7.5,7.5v9.756C7.54,24.043,2.611,31.861,5.247,34.497l7.145,7.145l-0.065,0.065   c0.005,0.005,0.011,0.011,0.016,0.016l12.984,12.854l4.669,4.669c0.505,0.505,1.188,0.757,2.043,0.757   c1.405,0,3.279-0.679,5.604-2.035c3.276-1.911,7.091-4.974,10.738-8.621s6.71-7.462,8.621-10.738   C59.184,34.868,59.614,32.296,58.28,30.962z M48.042,35.713L37.423,25.094c-0.504-0.504-0.523-1.307-0.046-1.868   c1.732-2.031,3.277-4.406,3.805-6.424l11.016,10.905C52.804,28.313,51.935,31.511,48.042,35.713z M31.482,7.438   c0.297,0,0.511,0.064,0.635,0.188c0.613,0.613-0.245,3.435-3.083,7.534V8.132C30.097,7.667,30.935,7.438,31.482,7.438z M21.534,2   c2.831,0,5.169,2.152,5.466,4.905c-3.325,1.711-7.305,4.807-10.966,8.344V7.5C16.034,4.468,18.502,2,21.534,2z M16.562,17.527   c4.103-4.103,7.737-6.808,10.473-8.376v8.681c-1.328,1.657-2.916,3.451-4.816,5.351c-8.233,8.233-14.596,10.86-15.557,9.899   C5.701,32.123,8.326,25.763,16.562,17.527z M26.737,53.159L15.833,42.255c0.837-0.21,1.785-0.581,2.845-1.12   c0.403-0.207,0.885-0.137,1.196,0.173l10.514,10.484C28.261,52.993,27.037,53.459,26.737,53.159z M46.967,47.933   c-8.233,8.232-14.594,10.862-15.557,9.899l-2.897-2.897c0.963-0.334,1.959-0.893,2.859-1.401c0.553-0.313,0.918-0.853,1.003-1.482   c0.086-0.628-0.122-1.244-0.57-1.691l-10.52-10.47c-0.922-0.918-2.334-1.137-3.513-0.538c-2.135,1.086-3.293,1.19-3.787,1.054   l-5.33-5.33c1.185-0.282,2.6-0.902,4.238-1.858c2.227-1.299,4.704-3.139,7.207-5.325c0.12-0.104,0.239-0.209,0.359-0.314   c0.253-0.224,0.506-0.451,0.759-0.682c0.21-0.191,0.418-0.385,0.626-0.579c0.187-0.175,0.374-0.347,0.56-0.526   c0.413-0.393,0.822-0.791,1.226-1.195c0.439-0.439,0.873-0.885,1.3-1.334c0.734-0.771,1.431-1.546,2.102-2.318V30h2V18.523   c1.266-1.619,2.363-3.197,3.219-4.664c0.956-1.639,1.576-3.054,1.858-4.238l5.151,5.151l-0.065,0.065   c0.493,0.493,0.01,3.161-3.342,7.092c-1.161,1.362-1.096,3.33,0.153,4.579l10.619,10.619c0.376,0.376,0.894,0.59,1.426,0.59   c0.014,0,0.026,0,0.04,0c0.547-0.012,1.052-0.237,1.42-0.637c2.206-2.388,4.059-5.151,4.647-7.409l2.705,2.705   C57.826,33.336,55.202,39.697,46.967,47.933z" data-original="#000000" class="active-path" data-old_color="#ffffff" fill="#ffffff"/>
	<path d="M30.155,27.879c0.566,0.566,0.879,1.319,0.879,2.121s-0.313,1.555-0.879,2.121c-1.133,1.133-3.109,1.133-4.242,0   c-0.566-0.566-0.879-1.319-0.879-2.121s0.312-1.555,0.879-2.121l-1.414-1.414c-0.944,0.943-1.465,2.199-1.465,3.535   s0.521,2.592,1.465,3.535C25.442,34.479,26.698,35,28.034,35s2.592-0.521,3.535-1.465c0.944-0.943,1.465-2.199,1.465-3.535   s-0.521-2.592-1.465-3.535L30.155,27.879z" data-original="#000000" class="active-path" data-old_color="#ffffff" fill="#ffffff"/>
</g></g> </svg>
