<?xml version="1.0" encoding="iso-8859-1"?>
<!-- Generator: Adobe Illustrator 18.0.0, SVG Export Plug-In . SVG Version: 6.00 Build 0)  -->
<!DOCTYPE svg PUBLIC "-//W3C//DTD SVG 1.1//EN" "http://www.w3.org/Graphics/SVG/1.1/DTD/svg11.dtd">
<svg version="1.1" id="Capa_1" xmlns="http://www.w3.org/2000/svg" xmlns:xlink="http://www.w3.org/1999/xlink" x="0px" y="0px"
	 viewBox="0 0 325 325" style="enable-background:new 0 0 325 325;" xml:space="preserve">
<path d="M323.264,64.72L264.758,5.594c-2.176-2.201-5.672-2.384-8.069-0.42L43.955,179.628c-0.09,0.073-0.161,0.16-0.246,0.238
	c-0.054,0.05-0.116,0.085-0.169,0.137c-0.043,0.042-0.071,0.093-0.112,0.136c-0.184,0.194-0.351,0.399-0.506,0.613
	c-0.066,0.09-0.138,0.175-0.198,0.268c-0.195,0.303-0.367,0.617-0.504,0.946c-0.021,0.048-0.029,0.099-0.048,0.146
	c-0.11,0.287-0.2,0.58-0.267,0.88c-0.025,0.12-0.037,0.24-0.056,0.361c-0.036,0.234-0.063,0.468-0.071,0.706
	c-0.005,0.133-0.002,0.265,0.002,0.397c0.007,0.228,0.028,0.453,0.062,0.68c0.02,0.136,0.039,0.27,0.068,0.404
	c0.049,0.223,0.117,0.44,0.191,0.659c0.044,0.13,0.081,0.261,0.134,0.388c0.014,0.032,0.02,0.066,0.034,0.099
	c11.718,26.598,3.372,57.078-22.897,83.626c-2.315,2.339-2.314,6.104,0,8.441l1.673,1.69L1.734,299.962
	c-1.466,1.482-2.058,3.62-1.563,5.646c0.495,2.025,2.007,3.648,3.992,4.286l34.242,11.005c0.603,0.194,1.222,0.288,1.835,0.288
	c1.578,0,3.121-0.623,4.266-1.779l7.545-7.625l0.75,0.758c1.127,1.139,2.662,1.78,4.265,1.78h0.001c1.602,0,3.138-0.641,4.265-1.78
	c18.388-18.583,38.57-28.406,58.365-28.406c8.293,0,16.443,1.774,24.224,5.275c0.032,0.015,0.066,0.021,0.099,0.034
	c0.129,0.056,0.262,0.094,0.394,0.14c0.219,0.075,0.436,0.147,0.658,0.196c0.138,0.03,0.275,0.051,0.415,0.071
	c0.225,0.034,0.448,0.058,0.673,0.065c0.075,0.003,0.148,0.021,0.224,0.021c0.064,0,0.129-0.017,0.193-0.019
	c0.224-0.007,0.444-0.031,0.666-0.063c0.135-0.02,0.268-0.034,0.401-0.063c0.248-0.053,0.488-0.13,0.729-0.214
	c0.099-0.035,0.199-0.058,0.297-0.098c0.33-0.136,0.648-0.302,0.95-0.496c0.075-0.049,0.143-0.11,0.216-0.162
	c0.231-0.163,0.453-0.339,0.662-0.536c0.033-0.031,0.072-0.053,0.105-0.085c0.061-0.06,0.102-0.131,0.159-0.192
	c0.099-0.107,0.208-0.2,0.3-0.316L323.679,72.696C325.588,70.319,325.41,66.888,323.264,64.72z M38.569,308.347l-21.435-6.889
	l12.351-12.482l14.126,14.276L38.569,308.347z M57.156,299.878l-0.88-0.89c-0.001,0-0.001-0.001-0.002-0.002l-0.002-0.001
	l-22.557-22.799c-0.004-0.003-0.006-0.007-0.009-0.01c-0.003-0.003-0.006-0.004-0.009-0.007l-1.705-1.724
	c20.121-22.087,29.467-46.583,27.178-70.117l67.441,68.158c-2.293-0.228-4.598-0.353-6.915-0.353
	C98.231,272.134,76.713,281.702,57.156,299.878z M145.915,274.935L56.657,184.73L260.072,17.918l50.898,51.438L145.915,274.935z"/>
<g>
</g>
<g>
</g>
<g>
</g>
<g>
</g>
<g>
</g>
<g>
</g>
<g>
</g>
<g>
</g>
<g>
</g>
<g>
</g>
<g>
</g>
<g>
</g>
<g>
</g>
<g>
</g>
<g>
</g>
</svg>
