<?xml version="1.0" encoding="iso-8859-1"?>
<!-- Generator: Adobe Illustrator 19.0.0, SVG Export Plug-In . SVG Version: 6.00 Build 0)  -->
<svg version="1.1" id="Capa_1" xmlns="http://www.w3.org/2000/svg" xmlns:xlink="http://www.w3.org/1999/xlink" x="0px" y="0px"
	 viewBox="0 0 511.991 511.991" style="enable-background:new 0 0 511.991 511.991;" xml:space="preserve">
<g>
	<g>
		<path d="M502.844,50.228L461.756,9.14c-12.169-12.177-31.983-12.177-44.16,0L68.54,358.196c-1.604,1.596-2.5,3.772-2.5,6.033
			c0,2.261,0.896,4.429,2.5,6.033l73.19,73.182c1.664,1.664,3.849,2.5,6.033,2.5c2.185,0,4.361-0.836,6.025-2.5L502.844,94.388
			c5.896-5.896,9.148-13.73,9.148-22.076C511.991,63.967,508.74,56.125,502.844,50.228z M490.786,82.322L147.763,425.345
			l-61.116-61.116L429.67,21.206c5.521-5.521,14.507-5.513,20.028,0l41.088,41.088c2.671,2.679,4.147,6.238,4.147,10.018
			C494.933,76.093,493.457,79.651,490.786,82.322z"/>
	</g>
</g>
<g>
	<g>
		<path d="M274.543,310.623l-73.19-73.182c-3.337-3.337-8.738-3.337-12.066,0l-36.591,36.591c-3.337,3.337-3.337,8.73,0,12.066
			l73.19,73.19c1.596,1.604,3.772,2.5,6.033,2.5s4.437-0.905,6.033-2.5l36.591-36.599
			C277.879,319.353,277.879,313.959,274.543,310.623z M231.919,341.189l-61.116-61.124l24.516-24.525l61.124,61.116L231.919,341.189
			z"/>
	</g>
</g>
<g>
	<g>
		<path d="M408.721,176.453l-73.19-73.19c-3.337-3.337-8.738-3.337-12.066,0l-36.591,36.591c-1.604,1.596-2.5,3.772-2.5,6.033
			s0.896,4.429,2.5,6.033l73.182,73.19c1.664,1.664,3.849,2.5,6.033,2.5c2.185,0,4.369-0.828,6.033-2.5l36.599-36.591
			c1.604-1.596,2.5-3.772,2.5-6.033C411.221,180.225,410.325,178.058,408.721,176.453z M366.089,207.02l-61.116-61.124
			l24.525-24.525l61.116,61.124L366.089,207.02z"/>
	</g>
</g>
<g>
	<g>
		<path d="M144.265,421.829l-51.925-51.925c-3.336-3.337-8.73-3.337-12.066,0L32.247,417.93c-5.478,5.478-5.478,14.396,0,19.874
			l44.117,44.126c2.739,2.731,6.34,4.105,9.933,4.105s7.194-1.365,9.941-4.113l48.026-48.026
			C147.601,430.559,147.601,425.166,144.265,421.829z M86.298,467.73l-39.859-39.859l39.859-39.859l39.859,39.859L86.298,467.73z"/>
	</g>
</g>
<g>
	<g>
		<path d="M77.474,458.915l-24.397-24.397c-3.337-3.337-8.738-3.337-12.066,0L7.552,467.978C2.679,472.842,0,479.318,0,486.205
			s2.679,13.363,7.552,18.227c4.864,4.872,11.341,7.552,18.227,7.552s13.363-2.679,18.236-7.552l33.459-33.451
			c1.604-1.596,2.5-3.772,2.5-6.033C79.974,462.687,79.078,460.519,77.474,458.915z M31.94,492.357
			c-3.285,3.294-9.028,3.302-12.322,0c-1.647-1.647-2.551-3.831-2.551-6.161s0.905-4.514,2.551-6.161l27.426-27.426l12.322,12.331
			L31.94,492.357z"/>
	</g>
</g>
<g>
	<g>
		<path d="M495.642,43.001l-24.474-24.482c-1.596-1.604-3.772-2.5-6.033-2.5c-2.261,0-4.429,0.896-6.033,2.5l-66.466,66.466
			c-4.881,4.881-7.569,11.366-7.569,18.27c0,6.904,2.688,13.397,7.569,18.278c5.035,5.043,11.656,7.56,18.27,7.56
			s13.227-2.517,18.27-7.56l66.466-66.466C498.978,51.73,498.978,46.337,495.642,43.001z M417.101,109.475
			c-3.319,3.311-9.088,3.311-12.407,0c-1.656-1.664-2.569-3.866-2.569-6.212c0-2.338,0.913-4.548,2.569-6.204l60.433-60.433
			l12.407,12.416L417.101,109.475z"/>
	</g>
</g>
<g>
</g>
<g>
</g>
<g>
</g>
<g>
</g>
<g>
</g>
<g>
</g>
<g>
</g>
<g>
</g>
<g>
</g>
<g>
</g>
<g>
</g>
<g>
</g>
<g>
</g>
<g>
</g>
<g>
</g>
</svg>
