<?xml version="1.0" encoding="UTF-8" standalone="no"?>
<!DOCTYPE svg PUBLIC "-//W3C//DTD SVG 1.1//EN" "http://www.w3.org/Graphics/SVG/1.1/DTD/svg11.dtd">
<svg version="1.1" xmlns="http://www.w3.org/2000/svg" xmlns:xlink="http://www.w3.org/1999/xlink" preserveAspectRatio="xMidYMid meet" viewBox="0 0 640 640" width="640" height="640"><defs><path d="M0 580L0 0L580 0L580 580L0 580ZM19.33 560.67L560.67 560.67L560.67 19.33L19.33 19.33L19.33 560.67Z" id="a1way8nXu"></path><path d="M542.38 60.35L546.67 60.79L550.9 61.39L555.07 62.16L559.19 63.1L563.25 64.18L567.24 65.43L571.17 66.82L575.02 68.37L578.8 70.06L582.49 71.89L586.11 73.85L589.64 75.95L593.08 78.18L596.43 80.54L599.68 83.02L602.83 85.62L605.88 88.34L608.82 91.18L611.65 94.12L614.37 97.17L616.97 100.32L619.46 103.57L621.81 106.92L624.05 110.36L626.15 113.89L628.11 117.5L629.94 121.2L631.63 124.98L633.17 128.83L634.57 132.75L635.81 136.75L636.9 140.8L637.84 144.92L638.61 149.1L639.21 153.33L639.65 157.62L639.91 161.95L640 166.32L640 533.68L639.91 538.05L639.65 542.38L639.21 546.67L638.61 550.9L637.84 555.08L636.9 559.2L635.81 563.25L634.57 567.25L633.17 571.17L631.63 575.02L629.94 578.8L628.11 582.5L626.15 586.11L624.05 589.64L621.81 593.08L619.46 596.43L616.97 599.68L614.37 602.83L611.65 605.88L608.82 608.82L605.88 611.66L602.83 614.38L599.68 616.98L596.43 619.46L593.08 621.82L589.64 624.05L586.11 626.15L582.49 628.11L578.8 629.94L575.02 631.63L571.17 633.18L567.24 634.57L563.25 635.82L559.19 636.9L555.07 637.84L550.9 638.61L546.67 639.21L542.38 639.65L538.05 639.91L533.68 640L166.32 640L161.95 639.91L157.62 639.65L153.33 639.21L149.1 638.61L144.92 637.84L140.8 636.9L136.75 635.82L132.75 634.57L128.83 633.18L124.98 631.63L121.2 629.94L117.5 628.12L113.89 626.15L110.36 624.05L106.92 621.82L103.57 619.46L100.32 616.98L97.17 614.38L94.12 611.66L91.18 608.82L88.34 605.88L85.62 602.83L83.02 599.68L80.54 596.43L78.18 593.08L75.95 589.64L73.85 586.12L71.89 582.5L70.06 578.8L68.37 575.03L66.82 571.18L65.43 567.25L64.18 563.26L63.1 559.2L62.16 555.08L61.39 550.91L60.79 546.68L60.35 542.39L60.09 538.06L60 533.69L60 166.32L60.09 161.95L60.35 157.62L60.79 153.33L61.39 149.1L62.16 144.92L63.1 140.8L64.18 136.75L65.43 132.75L66.82 128.83L68.37 124.98L70.06 121.2L71.89 117.5L73.85 113.89L75.95 110.36L78.18 106.92L80.54 103.57L83.02 100.32L85.62 97.17L88.34 94.12L91.18 91.18L94.12 88.34L97.17 85.62L100.32 83.02L103.57 80.54L106.92 78.18L110.36 75.95L113.89 73.85L117.5 71.89L121.2 70.06L124.98 68.37L128.83 66.82L132.75 65.43L136.75 64.18L140.8 63.1L144.92 62.16L149.1 61.39L153.33 60.79L157.62 60.35L161.95 60.09L166.32 60L533.68 60L538.05 60.09L542.38 60.35ZM162.74 79.41L159.2 79.62L155.69 79.98L152.23 80.47L148.81 81.1L145.44 81.87L142.12 82.76L138.86 83.78L135.65 84.92L132.5 86.18L129.41 87.56L126.38 89.06L123.42 90.67L120.54 92.38L117.72 94.21L114.98 96.14L112.32 98.17L109.74 100.3L107.25 102.52L104.84 104.84L102.52 107.25L100.3 109.74L98.17 112.32L96.14 114.98L94.21 117.72L92.38 120.54L90.67 123.42L89.06 126.38L87.56 129.41L86.18 132.5L84.92 135.65L83.78 138.86L82.76 142.12L81.87 145.44L81.1 148.81L80.47 152.23L79.98 155.69L79.62 159.2L79.41 162.74L79.33 166.32L79.33 533.68L79.41 537.26L79.62 540.8L79.98 544.31L80.47 547.77L81.1 551.19L81.87 554.56L82.76 557.88L83.78 561.14L84.92 564.35L86.18 567.5L87.56 570.59L89.06 573.62L90.67 576.58L92.38 579.46L94.21 582.28L96.14 585.02L98.17 587.68L100.3 590.26L102.52 592.75L104.84 595.16L107.25 597.48L109.74 599.7L112.32 601.83L114.98 603.86L117.72 605.79L120.54 607.62L123.42 609.33L126.38 610.94L129.41 612.44L132.5 613.82L135.65 615.08L138.86 616.22L142.12 617.24L145.44 618.13L148.81 618.9L152.23 619.53L155.69 620.02L159.2 620.38L162.74 620.59L166.32 620.67L533.68 620.67L536.07 620.61L538.45 620.45L540.82 620.18L543.18 619.8L545.53 619.31L547.86 618.71L550.19 618L552.51 617.19L554.81 616.26L557.1 615.23L559.38 614.09L561.65 612.84L563.91 611.48L566.16 610.01L568.39 608.43L570.62 606.75L572.83 604.95L575.04 603.05L577.23 601.04L579.41 598.92L581.58 596.69L583.73 594.35L585.88 591.91L588.02 589.35L590.14 586.69L592.25 583.91L594.36 581.03L596.45 578.04L598.53 574.94L600.6 571.73L602.65 568.42L604.7 564.99L606.73 561.46L608.76 557.82L610.77 554.06L612.77 550.2L614.76 546.24L616.74 542.16L618.71 537.97L620.67 533.68L620.67 166.32L620.59 162.74L620.38 159.2L620.02 155.69L619.53 152.23L618.9 148.81L618.13 145.44L617.24 142.12L616.22 138.86L615.08 135.65L613.82 132.5L612.44 129.41L610.94 126.38L609.33 123.42L607.62 120.54L605.79 117.72L603.86 114.98L601.83 112.32L599.7 109.74L597.48 107.25L595.16 104.84L592.75 102.52L590.26 100.3L587.68 98.17L585.02 96.14L582.28 94.21L579.46 92.38L576.58 90.67L573.62 89.06L570.59 87.56L567.5 86.18L564.35 84.92L561.14 83.78L557.88 82.76L554.56 81.87L551.19 81.1L547.77 80.47L544.31 79.98L540.8 79.62L537.26 79.41L533.68 79.33L166.32 79.33L162.74 79.41Z" id="c2wJIwNOB1"></path></defs><g><g><g><use xlink:href="#a1way8nXu" opacity="1" fill="#000000" fill-opacity="1"></use><g><use xlink:href="#a1way8nXu" opacity="1" fill-opacity="0" stroke="#000000" stroke-width="1" stroke-opacity="0"></use></g></g><g><use xlink:href="#c2wJIwNOB1" opacity="1" fill="#000000" fill-opacity="1"></use><g><use xlink:href="#c2wJIwNOB1" opacity="1" fill-opacity="0" stroke="#000000" stroke-width="1" stroke-opacity="0"></use></g></g></g></g></svg>