<?xml version="1.0" encoding="iso-8859-1"?>
<!-- Generator: Adobe Illustrator 19.0.0, SVG Export Plug-In . SVG Version: 6.00 Build 0)  -->
<svg version="1.1" id="Capa_1" xmlns="http://www.w3.org/2000/svg" xmlns:xlink="http://www.w3.org/1999/xlink" x="0px" y="0px"
	 viewBox="0 0 512 512" style="enable-background:new 0 0 512 512;" xml:space="preserve">
<g>
	<g>
		<path d="M509.694,413.393L345.949,249.648l122.892-122.892c0.823-0.824,1.408-1.794,1.768-2.825
			c0.013-0.034,0.03-0.065,0.042-0.099l21.181-60.002c0.001-0.003,0.003-0.006,0.004-0.009l18.535-52.511
			c0.963-2.725,0.273-5.76-1.77-7.804c-2.044-2.044-5.08-2.732-7.804-1.77l-52.511,18.536c0,0-0.002,0.001-0.003,0.001
			l-60.009,21.183c-0.035,0.013-0.067,0.031-0.103,0.044c-1.029,0.36-1.999,0.944-2.822,1.767l-66.564,66.564
			c-2.93,2.93-2.93,7.682,0,10.611c2.931,2.93,7.682,2.931,10.612,0l61.258-61.258l62.265,62.265L291.61,282.762l-47.029,47.029
			c-0.001,0.001-0.002,0.003-0.003,0.004l-84.749,84.75L97.565,352.28l210.58-210.58c2.93-2.93,2.93-7.682,0-10.612
			c-2.932-2.931-7.683-2.929-10.613,0L262.46,166.16l-22.432-22.432c-0.002-0.002-0.003-0.003-0.005-0.005
			c-0.002-0.002-0.003-0.003-0.005-0.005L207.99,111.69c-0.002-0.002-0.003-0.004-0.005-0.005c-0.002-0.002-0.003-0.003-0.005-0.005
			l-32.022-32.022c-0.003-0.003-0.006-0.007-0.009-0.01c-0.003-0.003-0.007-0.006-0.01-0.009l-77.44-77.44
			C97.091,0.79,95.182,0,93.192,0c-1.99,0-3.898,0.79-5.307,2.198L2.437,87.647c-2.93,2.93-2.93,7.682,0,10.611l32.812,32.812
			c2.93,2.93,7.681,2.931,10.613,0c2.93-2.931,2.93-7.682,0-10.611L18.355,92.952l74.836-74.836l34.801,34.801L107.051,73.86
			c-2.931,2.93-2.931,7.682,0,10.611c1.466,1.465,3.387,2.198,5.307,2.198c1.92,0,3.841-0.732,5.307-2.198l20.942-20.942
			l21.425,21.425l-31.553,31.553c-2.93,2.93-2.93,7.682,0,10.611c1.466,1.466,3.386,2.198,5.307,2.198
			c1.92,0,3.841-0.732,5.307-2.198l31.553-31.552l21.425,21.425l-20.943,20.942c-2.931,2.93-2.931,7.681-0.001,10.611
			c1.466,1.466,3.386,2.198,5.307,2.198c1.92,0,3.841-0.732,5.306-2.198l20.943-20.942l21.425,21.425l-31.553,31.553
			c-2.93,2.931-2.93,7.682,0,10.611c1.466,1.465,3.387,2.198,5.307,2.198s3.841-0.732,5.307-2.198l31.552-31.552l17.132,17.132
			l-9.579,9.579l-65.258,65.258L67.202,141.798c-2.932-2.93-7.682-2.93-10.612,0s-2.93,7.682,0,10.611L166.4,262.22L9.59,419.03
			c-6.114,6.113-9.482,14.242-9.482,22.889s3.367,16.776,9.481,22.889L47.3,502.518C53.414,508.632,61.543,512,70.19,512
			c8.646,0,16.776-3.368,22.889-9.482l32.629-32.628c0.003-0.003,0.006-0.007,0.009-0.01l39.418-39.417l84.753-84.753l41.846,41.846
			c2.932,2.93,7.682,2.93,10.612,0s2.93-7.682,0-10.611l-41.847-41.846l41.188-41.189l33.648-33.648l16.914,16.914l-20.942,20.943
			c-2.93,2.93-2.93,7.682,0,10.612c1.466,1.465,3.387,2.198,5.307,2.198c1.92,0,3.841-0.732,5.307-2.198l20.942-20.942
			l21.425,21.425l-31.553,31.553c-2.93,2.93-2.93,7.682,0,10.612c1.466,1.465,3.387,2.198,5.307,2.198s3.841-0.732,5.307-2.198
			l31.553-31.553l21.425,21.425l-20.943,20.943c-2.93,2.93-2.93,7.682,0,10.611c1.466,1.465,3.387,2.198,5.307,2.198
			s3.841-0.732,5.307-2.198l20.942-20.942l21.425,21.425l-31.553,31.553c-2.93,2.93-2.93,7.682,0,10.612
			c1.466,1.465,3.387,2.198,5.307,2.198c1.92,0,3.841-0.733,5.307-2.198l31.553-31.553l34.801,34.802L418.94,493.54l-94.767-94.767
			c-2.931-2.93-7.682-2.93-10.612,0s-2.93,7.682,0,10.611l100.073,100.074c1.466,1.465,3.387,2.198,5.307,2.198
			s3.841-0.732,5.307-2.198l85.449-85.449c1.407-1.407,2.197-3.316,2.197-5.306C511.891,416.708,511.101,414.799,509.694,413.393z
			 M490.997,21.112l-9.35,26.487l-17.137-17.137L490.997,21.112z M404.499,51.646l44.325-15.647l27.287,27.286l-15.647,44.325
			L404.499,51.646z M82.466,491.907c-3.279,3.28-7.639,5.086-12.276,5.086c-4.638,0-8.998-1.806-12.276-5.086l-37.712-37.711
			c-3.279-3.28-5.085-7.639-5.085-12.277c0-4.637,1.806-8.998,5.086-12.276l27.321-27.322l62.266,62.266L82.466,491.907z
			 M120.401,453.972l-62.266-62.265l28.816-28.816l62.266,62.266L120.401,453.972z"/>
	</g>
</g>
<g>
</g>
<g>
</g>
<g>
</g>
<g>
</g>
<g>
</g>
<g>
</g>
<g>
</g>
<g>
</g>
<g>
</g>
<g>
</g>
<g>
</g>
<g>
</g>
<g>
</g>
<g>
</g>
<g>
</g>
</svg>
